PathFileType	4	(X/Y/Z)	..\data\SUBJ01\dynamic\walk.trc
DataRate	CameraRate	NumFrames	NumMarkers	Units	OrigDataRate	OrigDataStartFrame	OrigNumFrames
100.000000	100.000000	4	33	mm	100.000000	53	337
Frame#	Time	LFHD			RFHD			LBHD			RBHD			C7			T10			CLAV			STRN			LSHO			LELB			LWRA			LWRB			LFIN			RSHO			RELB			RWRA			RWRB			RFIN			LASI			RASI			SACR			LTHI			LKNE			LTIB			LANK			LHEE			LTOE			RTHI			RKNE			RTIB			RANK			RHEE			RTOE			
		X1	Y1	Z1	X2	Y2	Z2	X3	Y3	Z3	X4	Y4	Z4	X5	Y5	Z5	X6	Y6	Z6	X7	Y7	Z7	X8	Y8	Z8	X9	Y9	Z9	X10	Y10	Z10	X11	Y11	Z11	X12	Y12	Z12	X13	Y13	Z13	X14	Y14	Z14	X15	Y15	Z15	X16	Y16	Z16	X17	Y17	Z17	X18	Y18	Z18	X19	Y19	Z19	X20	Y20	Z20	X21	Y21	Z21	X22	Y22	Z22	X23	Y23	Z23	X24	Y24	Z24	X25	Y25	Z25	X26	Y26	Z26	X27	Y27	Z27	X28	Y28	Z28	X29	Y29	Z29	X30	Y30	Z30	X31	Y31	Z31	X32	Y32	Z32	X33	Y33	Z33	

54	1.48	648.4210815429689	1520.920166015625	-256.0757751464844	628.6720581054689	1490.243530273438	-136.3821868896485	496.6026916503907	1445.307983398438	-282.3595275878907	480.643280029297	1420.840576171875	-153.1285552978516	445.2275695800782	1332.86669921875	-214.4688873291016	379.8021240234376	1112.3115234375	-226.071762084961	592.4061279296876	1232.757934570313	-226.1431121826172	649.3264770507814	1075.3505859375	-226.2567596435547	505.0587768554689	1298.5615234375	-386.7711486816407	551.6463623046876	1021.854736328125	-514.8454589843751	743.6724853515626	897.7121582031252	-436.9034729003907	729.5646972656251	860.495300292969	-488.4488525390626	820.368835449219	845.1710205078127	-437.0776367187501	511.395965576172	1260.88427734375	-44.35596466064454	413.1640930175782	980.004333496094	45.51952362060548	474.3658142089845	737.5588989257814	4.869551658630372	407.4617004394532	736.5814208984376	46.52361297607423	480.6885375976564	652.1716918945314	30.36046791076661	561.1807861328126	843.6196289062502	-371.0023803710938	577.2227783203126	832.462829589844	-91.38619995117189	394.0187988281251	853.502624511719	-215.6370239257813	432.6465759277345	591.5045776367189	-440.7902221679689	387.2669982910157	417.5134582519532	-347.3797302246094	268.3490295410157	204.0399627685547	-371.7101745605469	222.6737213134766	84.41833496093751	-302.5019226074219	159.3827514648438	92.59305572509767	-267.9460449218751	318.6922912597657	46.14509582519532	-264.1347045898438	593.3152465820314	555.5098266601564	-34.38071441650391	683.1575927734376	427.1315307617189	-103.0688247680664	757.1394042968751	195.3770751953126	-78.42190551757814	791.4202880859377	72.55757141113283	-135.2974853515625	746.3388671875001	49.40695571899415	-192.403793334961	906.3081054687502	87.01942443847658	-151.0889282226563	
55	1.49	659.9176635742189	1520.102416992188	-254.7218475341797	640.1895141601564	1489.37109375	-135.029541015625	508.1325988769532	1444.390991210938	-281.0092773437501	492.2313537597657	1419.86572265625	-151.7890625	456.8847045898439	1331.717651367188	-213.0794067382813	391.9161987304689	1111.069946289063	-225.2069549560547	604.2500000000001	1231.924438476563	-224.9005432128907	661.5979614257814	1074.679565429688	-225.0989837646485	516.6214599609376	1297.69384765625	-385.5686950683595	561.7280273437501	1020.612854003906	-513.8351440429689	753.4201660156251	895.8085937500002	-436.0799560546876	739.0510864257814	858.5344238281252	-487.513397216797	829.9350585937502	843.0359497070315	-436.3142700195314	523.1268310546876	1259.411865234375	-43.12059020996094	426.5230102539064	977.891296386719	46.52309036254884	487.3937377929689	735.3550415039064	5.985831260681153	420.7282104492189	734.5194702148439	48.00671005249025	493.7534179687501	649.9969482421876	31.61238288879395	573.9663085937501	842.318054199219	-370.0638427734376	589.9172973632814	832.1790771484377	-90.46609497070314	406.7116699218751	852.4132080078127	-214.8568572998047	445.020965576172	590.5469970703126	-440.2154235839845	398.9713745117189	416.7679138183595	-347.1732788085938	275.0350341796876	206.3178863525391	-372.3161010742188	225.5125427246094	88.08032989501955	-303.5370788574219	162.5565490722657	98.58207702636722	-269.3369445800782	319.8781127929688	46.29223251342774	-264.1998596191407	608.1660156250001	556.2483520507814	-34.50983047485352	698.4071655273439	427.0445251464845	-103.3729476928711	765.7291259765626	193.4842987060547	-79.42748260498048	795.6024169921877	70.1559295654297	-136.38818359375	749.5824584960939	48.78089904785158	-193.3691558837891	910.284118652344	81.25836181640626	-152.393295288086	
56	1.5	671.5123901367189	1519.5341796875	-253.3031768798829	651.7776489257814	1488.758666992188	-133.6109008789063	519.7518310546876	1443.75439453125	-279.6151428222657	503.8799743652345	1419.181274414063	-150.4087677001953	468.630584716797	1330.844604492188	-211.6255798339844	404.1013793945314	1110.096069335938	-224.3477020263672	616.1777343750001	1231.383178710938	-223.5848388671876	673.9877319335939	1074.321533203125	-223.8789672851563	528.2981567382814	1297.10791015625	-384.3176574707032	571.6771850585939	1019.529357910156	-512.6655273437501	762.7875976562501	893.5197753906252	-435.3670959472657	748.0109252929689	856.2697753906252	-486.699432373047	838.9858398437502	840.3217773437502	-435.8030090332032	534.9221191406251	1258.193115234375	-41.83715057373048	440.121795654297	975.9505615234377	47.47314071655274	500.9266052246095	733.3676147460939	7.244117736816408	434.4512329101564	732.6381835937501	49.54644775390626	507.389129638672	648.0765991210939	33.0965919494629	586.8596801757814	841.2764892578127	-369.0570373535157	602.7700195312501	832.355651855469	-89.55672454833986	419.4861145019532	851.5706176757815	-214.0233764648438	457.8306579589845	589.6282958984376	-439.4838256835939	411.6355895996095	416.0023803710939	-346.9490966796876	282.4856262207032	208.9740905761719	-372.8971557617188	229.0470275878907	92.35091400146486	-304.6176147460938	166.6497650146485	105.3963851928711	-270.6931762695313	321.2406616210938	46.4668312072754	-264.2431030273438	623.1235961914064	557.3686523437501	-34.75354003906251	713.5565795898439	426.5538635253907	-103.9815750122071	774.0259399414065	191.7418975830078	-80.36647796630861	799.1840820312502	67.94792938232423	-137.3671569824219	752.0595092773439	48.39035034179689	-194.1019592285157	913.6096801757815	75.42848968505861	-153.7954254150391	
57	1.51	683.1942138671876	1519.225341796875	-251.8298797607422	663.4224853515626	1488.41357421875	-132.1395111083985	531.4474487304689	1443.417358398438	-278.1932067871094	515.5709838867189	1418.80224609375	-149.0052490234375	480.4537048339845	1330.269287109375	-210.1158599853516	416.3304443359376	1109.409790039063	-223.4981689453126	628.1723632812501	1231.149047851563	-222.2243347167969	686.4655761718751	1074.285888671875	-222.6245574951172	540.0714111328126	1296.83837890625	-383.0318908691407	581.5060424804689	1018.639099121094	-511.323211669922	771.7661132812502	890.8660888671877	-434.7659912109376	756.4301147460939	853.7302246093752	-486.0099487304689	847.498229980469	837.037536621094	-435.5506286621095	546.7948608398439	1257.258422851563	-40.53256607055665	453.945037841797	974.2366333007815	48.36040115356447	514.9674072265626	731.6556396484376	8.642113685607912	448.6240539550782	730.9924316406251	51.12992477416994	521.5976562500001	646.4677124023439	34.80588531494141	599.8172607421876	840.5128173828127	-367.9730529785157	615.7324829101564	833.0042114257815	-88.64318084716798	432.2989196777345	850.989440917969	-213.1305236816407	471.1192321777345	588.7471923828126	-438.6021423339845	425.3744506835939	415.1961975097657	-346.7483825683594	290.8249206542969	212.0554504394532	-373.4722595214844	233.4214782714844	97.28428649902347	-305.7628173828126	171.857177734375	113.0860900878907	-272.0152587890626	322.8163452148438	46.71257400512696	-264.2965393066407	638.0322875976564	558.8225097656251	-35.00641250610352	728.4121704101564	425.7786254882814	-104.8281478881836	782.0954589843752	190.2136535644532	-81.21776580810548	802.3469238281252	66.0474319458008	-138.2134399414063	754.0248413085939	48.26479721069337	-194.6020660400391	916.467224121094	69.82681274414064	-155.2176208496094	
